<mxfile host="app.diagrams.net" modified="2022-04-07T09:42:09.029Z" agent="5.0 (Windows NT 10.0; Win64; x64) AppleWebKit/537.36 (KHTML, like Gecko) Chrome/93.0.4577.63 Safari/537.36" etag="rNk4qNDZJ5_N8PNF7ri-" version="17.4.0" type="github">
  <diagram id="C5RBs43oDa-KdzZeNtuy" name="Page-1">
    <mxGraphModel dx="925" dy="501" grid="1" gridSize="10" guides="1" tooltips="1" connect="1" arrows="1" fold="1" page="1" pageScale="1" pageWidth="4000" pageHeight="6000" math="0" shadow="0">
      <root>
        <mxCell id="WIyWlLk6GJQsqaUBKTNV-0" />
        <mxCell id="WIyWlLk6GJQsqaUBKTNV-1" parent="WIyWlLk6GJQsqaUBKTNV-0" />
        <mxCell id="8dFsJCpf3x3U8wEW675l-0" value="" style="edgeStyle=orthogonalEdgeStyle;rounded=0;orthogonalLoop=1;jettySize=auto;html=1;" edge="1" parent="WIyWlLk6GJQsqaUBKTNV-1" source="8dFsJCpf3x3U8wEW675l-1" target="8dFsJCpf3x3U8wEW675l-9">
          <mxGeometry relative="1" as="geometry" />
        </mxCell>
        <mxCell id="8dFsJCpf3x3U8wEW675l-1" value="Start" style="rounded=1;whiteSpace=wrap;fontSize=7;fontColor=#FFFFFF;fillColor=#000000;html=1;" vertex="1" parent="WIyWlLk6GJQsqaUBKTNV-1">
          <mxGeometry x="138.59159130300122" y="25" width="43.375385595334066" height="13.590388640798647" as="geometry" />
        </mxCell>
        <mxCell id="8dFsJCpf3x3U8wEW675l-2" value="" style="edgeStyle=orthogonalEdgeStyle;rounded=0;orthogonalLoop=1;jettySize=auto;html=1;" edge="1" parent="WIyWlLk6GJQsqaUBKTNV-1" source="8dFsJCpf3x3U8wEW675l-3" target="8dFsJCpf3x3U8wEW675l-11">
          <mxGeometry relative="1" as="geometry" />
        </mxCell>
        <mxCell id="8dFsJCpf3x3U8wEW675l-3" value="set SffResponse sffResponse" style="rounded=0;whiteSpace=wrap;fontSize=7;html=1;" vertex="1" parent="WIyWlLk6GJQsqaUBKTNV-1">
          <mxGeometry x="105" y="180" width="110.55" height="18.89" as="geometry" />
        </mxCell>
        <mxCell id="8dFsJCpf3x3U8wEW675l-4" style="edgeStyle=orthogonalEdgeStyle;rounded=0;orthogonalLoop=1;jettySize=auto;html=1;" edge="1" parent="WIyWlLk6GJQsqaUBKTNV-1" source="8dFsJCpf3x3U8wEW675l-5" target="8dFsJCpf3x3U8wEW675l-3">
          <mxGeometry relative="1" as="geometry" />
        </mxCell>
        <mxCell id="8dFsJCpf3x3U8wEW675l-5" value="&lt;div&gt;Set SFFRequest to object requestType, cLHId, ordered, mobileNo,&lt;/div&gt;&lt;div&gt;&amp;nbsp; &amp;nbsp;&lt;span&gt;		&lt;/span&gt;portActivationDate, verifyStatus, rejectReason,&amp;nbsp;prevTime&lt;/div&gt;" style="rounded=0;whiteSpace=wrap;fontSize=7;html=1;" vertex="1" parent="WIyWlLk6GJQsqaUBKTNV-1">
          <mxGeometry x="46.48" y="118.89" width="227.6" height="38.89" as="geometry" />
        </mxCell>
        <mxCell id="8dFsJCpf3x3U8wEW675l-6" value="" style="rounded=0;whiteSpace=wrap;fontSize=7;html=1;" vertex="1" parent="WIyWlLk6GJQsqaUBKTNV-1">
          <mxGeometry x="408" y="110" width="110.55" height="18.89" as="geometry" />
        </mxCell>
        <mxCell id="8dFsJCpf3x3U8wEW675l-7" value="" style="rhombus;whiteSpace=wrap;fontSize=7;html=1;" vertex="1" parent="WIyWlLk6GJQsqaUBKTNV-1">
          <mxGeometry x="360.0002109677828" y="160.00478290092758" width="138.2042933850162" height="58.891684110127464" as="geometry" />
        </mxCell>
        <mxCell id="8dFsJCpf3x3U8wEW675l-8" value="" style="edgeStyle=orthogonalEdgeStyle;rounded=0;orthogonalLoop=1;jettySize=auto;html=1;" edge="1" parent="WIyWlLk6GJQsqaUBKTNV-1" source="8dFsJCpf3x3U8wEW675l-9" target="8dFsJCpf3x3U8wEW675l-5">
          <mxGeometry relative="1" as="geometry" />
        </mxCell>
        <mxCell id="8dFsJCpf3x3U8wEW675l-9" value="set SffRequest sffRequest" style="rounded=0;whiteSpace=wrap;fontSize=7;html=1;" vertex="1" parent="WIyWlLk6GJQsqaUBKTNV-1">
          <mxGeometry x="105.91" y="70" width="108.74367859185357" height="15.856585946651823" as="geometry" />
        </mxCell>
        <mxCell id="8dFsJCpf3x3U8wEW675l-10" value="" style="edgeStyle=orthogonalEdgeStyle;rounded=0;orthogonalLoop=1;jettySize=auto;html=1;" edge="1" parent="WIyWlLk6GJQsqaUBKTNV-1" source="8dFsJCpf3x3U8wEW675l-11" target="8dFsJCpf3x3U8wEW675l-13">
          <mxGeometry relative="1" as="geometry" />
        </mxCell>
        <mxCell id="8dFsJCpf3x3U8wEW675l-11" value="sffRequest != null" style="rhombus;whiteSpace=wrap;fontSize=7;html=1;" vertex="1" parent="WIyWlLk6GJQsqaUBKTNV-1">
          <mxGeometry x="107.86" y="240" width="104.82384852205732" height="27.180777281597294" as="geometry" />
        </mxCell>
        <mxCell id="8dFsJCpf3x3U8wEW675l-12" value="" style="edgeStyle=orthogonalEdgeStyle;rounded=0;orthogonalLoop=1;jettySize=auto;html=1;" edge="1" parent="WIyWlLk6GJQsqaUBKTNV-1" source="8dFsJCpf3x3U8wEW675l-13" target="8dFsJCpf3x3U8wEW675l-15">
          <mxGeometry relative="1" as="geometry" />
        </mxCell>
        <mxCell id="8dFsJCpf3x3U8wEW675l-13" value="parameterList = sffRequest.getParameterList()" style="rounded=0;whiteSpace=wrap;fontSize=7;html=1;" vertex="1" parent="WIyWlLk6GJQsqaUBKTNV-1">
          <mxGeometry x="75.72" y="300" width="169.13" height="28.9" as="geometry" />
        </mxCell>
        <mxCell id="8dFsJCpf3x3U8wEW675l-14" value="" style="edgeStyle=orthogonalEdgeStyle;rounded=0;orthogonalLoop=1;jettySize=auto;html=1;" edge="1" parent="WIyWlLk6GJQsqaUBKTNV-1" source="8dFsJCpf3x3U8wEW675l-15" target="8dFsJCpf3x3U8wEW675l-17">
          <mxGeometry relative="1" as="geometry" />
        </mxCell>
        <mxCell id="8dFsJCpf3x3U8wEW675l-15" value="parameters != null &amp;amp;&amp;amp; parameters.length &amp;gt; 0" style="rhombus;whiteSpace=wrap;fontSize=7;html=1;" vertex="1" parent="WIyWlLk6GJQsqaUBKTNV-1">
          <mxGeometry x="63.87" y="360" width="192.83" height="40" as="geometry" />
        </mxCell>
        <mxCell id="8dFsJCpf3x3U8wEW675l-16" value="" style="edgeStyle=orthogonalEdgeStyle;rounded=0;orthogonalLoop=1;jettySize=auto;html=1;" edge="1" parent="WIyWlLk6GJQsqaUBKTNV-1" source="8dFsJCpf3x3U8wEW675l-17" target="8dFsJCpf3x3U8wEW675l-20">
          <mxGeometry relative="1" as="geometry" />
        </mxCell>
        <mxCell id="8dFsJCpf3x3U8wEW675l-17" value="int i = 0; i &amp;lt; parameters.length" style="rhombus;whiteSpace=wrap;fontSize=7;html=1;" vertex="1" parent="WIyWlLk6GJQsqaUBKTNV-1">
          <mxGeometry x="92.22" y="440" width="136.14" height="40" as="geometry" />
        </mxCell>
        <mxCell id="8dFsJCpf3x3U8wEW675l-18" value="" style="edgeStyle=orthogonalEdgeStyle;rounded=0;orthogonalLoop=1;jettySize=auto;html=1;" edge="1" parent="WIyWlLk6GJQsqaUBKTNV-1" source="8dFsJCpf3x3U8wEW675l-20" target="8dFsJCpf3x3U8wEW675l-23">
          <mxGeometry relative="1" as="geometry" />
        </mxCell>
        <mxCell id="8dFsJCpf3x3U8wEW675l-19" value="" style="edgeStyle=orthogonalEdgeStyle;rounded=0;orthogonalLoop=1;jettySize=auto;html=1;" edge="1" parent="WIyWlLk6GJQsqaUBKTNV-1" source="8dFsJCpf3x3U8wEW675l-20" target="8dFsJCpf3x3U8wEW675l-45">
          <mxGeometry relative="1" as="geometry" />
        </mxCell>
        <mxCell id="8dFsJCpf3x3U8wEW675l-20" value="parameters[i].getName() =&amp;nbsp;&quot;requestType&quot;" style="rhombus;whiteSpace=wrap;fontSize=7;html=1;" vertex="1" parent="WIyWlLk6GJQsqaUBKTNV-1">
          <mxGeometry x="58.18" y="520" width="204.21" height="30" as="geometry" />
        </mxCell>
        <mxCell id="8dFsJCpf3x3U8wEW675l-21" value="" style="edgeStyle=orthogonalEdgeStyle;rounded=0;orthogonalLoop=1;jettySize=auto;html=1;" edge="1" parent="WIyWlLk6GJQsqaUBKTNV-1" source="8dFsJCpf3x3U8wEW675l-23" target="8dFsJCpf3x3U8wEW675l-29">
          <mxGeometry relative="1" as="geometry" />
        </mxCell>
        <mxCell id="8dFsJCpf3x3U8wEW675l-22" value="" style="edgeStyle=orthogonalEdgeStyle;rounded=0;orthogonalLoop=1;jettySize=auto;html=1;" edge="1" parent="WIyWlLk6GJQsqaUBKTNV-1" source="8dFsJCpf3x3U8wEW675l-23" target="8dFsJCpf3x3U8wEW675l-47">
          <mxGeometry relative="1" as="geometry" />
        </mxCell>
        <mxCell id="8dFsJCpf3x3U8wEW675l-23" value="parameters[i].getName() =&amp;nbsp;&quot;cLHId&quot;" style="rhombus;whiteSpace=wrap;fontSize=7;html=1;" vertex="1" parent="WIyWlLk6GJQsqaUBKTNV-1">
          <mxGeometry x="58.17000000000001" y="590" width="204.21" height="30" as="geometry" />
        </mxCell>
        <mxCell id="8dFsJCpf3x3U8wEW675l-24" value="" style="edgeStyle=orthogonalEdgeStyle;rounded=0;orthogonalLoop=1;jettySize=auto;html=1;" edge="1" parent="WIyWlLk6GJQsqaUBKTNV-1" source="8dFsJCpf3x3U8wEW675l-26" target="8dFsJCpf3x3U8wEW675l-32">
          <mxGeometry relative="1" as="geometry" />
        </mxCell>
        <mxCell id="8dFsJCpf3x3U8wEW675l-25" value="" style="edgeStyle=orthogonalEdgeStyle;rounded=0;orthogonalLoop=1;jettySize=auto;html=1;" edge="1" parent="WIyWlLk6GJQsqaUBKTNV-1" source="8dFsJCpf3x3U8wEW675l-26" target="8dFsJCpf3x3U8wEW675l-51">
          <mxGeometry relative="1" as="geometry" />
        </mxCell>
        <mxCell id="8dFsJCpf3x3U8wEW675l-26" value="parameters[i].getName() =&amp;nbsp;&quot;mobileNo&quot;" style="rhombus;whiteSpace=wrap;fontSize=7;html=1;" vertex="1" parent="WIyWlLk6GJQsqaUBKTNV-1">
          <mxGeometry x="58.18000000000001" y="750" width="204.21" height="30" as="geometry" />
        </mxCell>
        <mxCell id="8dFsJCpf3x3U8wEW675l-27" value="" style="edgeStyle=orthogonalEdgeStyle;rounded=0;orthogonalLoop=1;jettySize=auto;html=1;" edge="1" parent="WIyWlLk6GJQsqaUBKTNV-1" source="8dFsJCpf3x3U8wEW675l-29" target="8dFsJCpf3x3U8wEW675l-26">
          <mxGeometry relative="1" as="geometry" />
        </mxCell>
        <mxCell id="8dFsJCpf3x3U8wEW675l-28" value="" style="edgeStyle=orthogonalEdgeStyle;rounded=0;orthogonalLoop=1;jettySize=auto;html=1;" edge="1" parent="WIyWlLk6GJQsqaUBKTNV-1" source="8dFsJCpf3x3U8wEW675l-29" target="8dFsJCpf3x3U8wEW675l-49">
          <mxGeometry relative="1" as="geometry" />
        </mxCell>
        <mxCell id="8dFsJCpf3x3U8wEW675l-29" value="parameters[i].getName() =&amp;nbsp;&quot;orderPortId&quot;" style="rhombus;whiteSpace=wrap;fontSize=7;html=1;" vertex="1" parent="WIyWlLk6GJQsqaUBKTNV-1">
          <mxGeometry x="58.17000000000001" y="670" width="204.21" height="30" as="geometry" />
        </mxCell>
        <mxCell id="8dFsJCpf3x3U8wEW675l-30" value="" style="edgeStyle=orthogonalEdgeStyle;rounded=0;orthogonalLoop=1;jettySize=auto;html=1;" edge="1" parent="WIyWlLk6GJQsqaUBKTNV-1" source="8dFsJCpf3x3U8wEW675l-32" target="8dFsJCpf3x3U8wEW675l-38">
          <mxGeometry relative="1" as="geometry" />
        </mxCell>
        <mxCell id="8dFsJCpf3x3U8wEW675l-31" value="" style="edgeStyle=orthogonalEdgeStyle;rounded=0;orthogonalLoop=1;jettySize=auto;html=1;" edge="1" parent="WIyWlLk6GJQsqaUBKTNV-1" source="8dFsJCpf3x3U8wEW675l-32" target="8dFsJCpf3x3U8wEW675l-53">
          <mxGeometry relative="1" as="geometry" />
        </mxCell>
        <mxCell id="8dFsJCpf3x3U8wEW675l-32" value="parameters[i].getName() =&amp;nbsp;&quot;portActivationDate&quot;" style="rhombus;whiteSpace=wrap;fontSize=7;html=1;" vertex="1" parent="WIyWlLk6GJQsqaUBKTNV-1">
          <mxGeometry x="58.16000000000002" y="830" width="204.21" height="30" as="geometry" />
        </mxCell>
        <mxCell id="8dFsJCpf3x3U8wEW675l-33" value="" style="edgeStyle=orthogonalEdgeStyle;rounded=0;orthogonalLoop=1;jettySize=auto;html=1;" edge="1" parent="WIyWlLk6GJQsqaUBKTNV-1" source="8dFsJCpf3x3U8wEW675l-35" target="8dFsJCpf3x3U8wEW675l-41">
          <mxGeometry relative="1" as="geometry" />
        </mxCell>
        <mxCell id="8dFsJCpf3x3U8wEW675l-34" value="" style="edgeStyle=orthogonalEdgeStyle;rounded=0;orthogonalLoop=1;jettySize=auto;html=1;" edge="1" parent="WIyWlLk6GJQsqaUBKTNV-1" source="8dFsJCpf3x3U8wEW675l-35" target="8dFsJCpf3x3U8wEW675l-57">
          <mxGeometry relative="1" as="geometry" />
        </mxCell>
        <mxCell id="8dFsJCpf3x3U8wEW675l-35" value="parameters[i].getName() =&amp;nbsp;&quot;rejectReason&quot;" style="rhombus;whiteSpace=wrap;fontSize=7;html=1;" vertex="1" parent="WIyWlLk6GJQsqaUBKTNV-1">
          <mxGeometry x="58.17000000000001" y="990" width="204.21" height="30" as="geometry" />
        </mxCell>
        <mxCell id="8dFsJCpf3x3U8wEW675l-36" value="" style="edgeStyle=orthogonalEdgeStyle;rounded=0;orthogonalLoop=1;jettySize=auto;html=1;" edge="1" parent="WIyWlLk6GJQsqaUBKTNV-1" source="8dFsJCpf3x3U8wEW675l-38" target="8dFsJCpf3x3U8wEW675l-35">
          <mxGeometry relative="1" as="geometry" />
        </mxCell>
        <mxCell id="8dFsJCpf3x3U8wEW675l-37" value="" style="edgeStyle=orthogonalEdgeStyle;rounded=0;orthogonalLoop=1;jettySize=auto;html=1;" edge="1" parent="WIyWlLk6GJQsqaUBKTNV-1" source="8dFsJCpf3x3U8wEW675l-38" target="8dFsJCpf3x3U8wEW675l-55">
          <mxGeometry relative="1" as="geometry" />
        </mxCell>
        <mxCell id="8dFsJCpf3x3U8wEW675l-38" value="parameters[i].getName() =&amp;nbsp;&quot;verifyStatus&quot;" style="rhombus;whiteSpace=wrap;fontSize=7;html=1;" vertex="1" parent="WIyWlLk6GJQsqaUBKTNV-1">
          <mxGeometry x="58.16000000000002" y="910" width="204.21" height="30" as="geometry" />
        </mxCell>
        <mxCell id="8dFsJCpf3x3U8wEW675l-39" value="" style="edgeStyle=orthogonalEdgeStyle;rounded=0;orthogonalLoop=1;jettySize=auto;html=1;" edge="1" parent="WIyWlLk6GJQsqaUBKTNV-1" source="8dFsJCpf3x3U8wEW675l-41" target="8dFsJCpf3x3U8wEW675l-43">
          <mxGeometry relative="1" as="geometry" />
        </mxCell>
        <mxCell id="8dFsJCpf3x3U8wEW675l-40" value="" style="edgeStyle=orthogonalEdgeStyle;rounded=0;orthogonalLoop=1;jettySize=auto;html=1;" edge="1" parent="WIyWlLk6GJQsqaUBKTNV-1" source="8dFsJCpf3x3U8wEW675l-41" target="8dFsJCpf3x3U8wEW675l-59">
          <mxGeometry relative="1" as="geometry" />
        </mxCell>
        <mxCell id="8dFsJCpf3x3U8wEW675l-41" value="parameters[i].getName() =&amp;nbsp;&quot;correctPinCode&quot;" style="rhombus;whiteSpace=wrap;fontSize=7;html=1;" vertex="1" parent="WIyWlLk6GJQsqaUBKTNV-1">
          <mxGeometry x="58.180000000000014" y="1070" width="204.21" height="30" as="geometry" />
        </mxCell>
        <mxCell id="8dFsJCpf3x3U8wEW675l-42" style="edgeStyle=orthogonalEdgeStyle;rounded=0;orthogonalLoop=1;jettySize=auto;html=1;entryX=0;entryY=0.5;entryDx=0;entryDy=0;" edge="1" parent="WIyWlLk6GJQsqaUBKTNV-1" source="8dFsJCpf3x3U8wEW675l-43" target="8dFsJCpf3x3U8wEW675l-61">
          <mxGeometry relative="1" as="geometry">
            <Array as="points">
              <mxPoint x="600" y="1160" />
              <mxPoint x="600" y="536" />
            </Array>
          </mxGeometry>
        </mxCell>
        <mxCell id="8dFsJCpf3x3U8wEW675l-43" value="" style="ellipse;whiteSpace=wrap;aspect=fixed;fontSize=7;fontColor=#FF0000;labelBorderColor=default;labelBackgroundColor=#FF0000;fillColor=#FF0000;html=1;" vertex="1" parent="WIyWlLk6GJQsqaUBKTNV-1">
          <mxGeometry x="150.27" y="1150" width="20" height="20" as="geometry" />
        </mxCell>
        <mxCell id="8dFsJCpf3x3U8wEW675l-44" style="edgeStyle=orthogonalEdgeStyle;rounded=0;orthogonalLoop=1;jettySize=auto;html=1;entryX=0;entryY=0.5;entryDx=0;entryDy=0;" edge="1" parent="WIyWlLk6GJQsqaUBKTNV-1" source="8dFsJCpf3x3U8wEW675l-45" target="8dFsJCpf3x3U8wEW675l-61">
          <mxGeometry relative="1" as="geometry" />
        </mxCell>
        <mxCell id="8dFsJCpf3x3U8wEW675l-45" value="requestType = parameters[i].getValue()" style="rounded=0;whiteSpace=wrap;fontSize=7;html=1;" vertex="1" parent="WIyWlLk6GJQsqaUBKTNV-1">
          <mxGeometry x="360" y="521.0999999999999" width="169.13" height="28.9" as="geometry" />
        </mxCell>
        <mxCell id="8dFsJCpf3x3U8wEW675l-46" style="edgeStyle=orthogonalEdgeStyle;rounded=0;orthogonalLoop=1;jettySize=auto;html=1;entryX=0;entryY=0.5;entryDx=0;entryDy=0;" edge="1" parent="WIyWlLk6GJQsqaUBKTNV-1" source="8dFsJCpf3x3U8wEW675l-47" target="8dFsJCpf3x3U8wEW675l-61">
          <mxGeometry relative="1" as="geometry">
            <Array as="points">
              <mxPoint x="600" y="604" />
              <mxPoint x="600" y="536" />
            </Array>
          </mxGeometry>
        </mxCell>
        <mxCell id="8dFsJCpf3x3U8wEW675l-47" value="cLHId = parameters[i].getValue()" style="rounded=0;whiteSpace=wrap;fontSize=7;html=1;" vertex="1" parent="WIyWlLk6GJQsqaUBKTNV-1">
          <mxGeometry x="360" y="589.9999999999999" width="169.13" height="28.9" as="geometry" />
        </mxCell>
        <mxCell id="8dFsJCpf3x3U8wEW675l-48" style="edgeStyle=orthogonalEdgeStyle;rounded=0;orthogonalLoop=1;jettySize=auto;html=1;entryX=0;entryY=0.5;entryDx=0;entryDy=0;" edge="1" parent="WIyWlLk6GJQsqaUBKTNV-1" source="8dFsJCpf3x3U8wEW675l-49" target="8dFsJCpf3x3U8wEW675l-61">
          <mxGeometry relative="1" as="geometry">
            <Array as="points">
              <mxPoint x="600" y="684" />
              <mxPoint x="600" y="536" />
            </Array>
          </mxGeometry>
        </mxCell>
        <mxCell id="8dFsJCpf3x3U8wEW675l-49" value="orderPortId = parameters[i].getValue()" style="rounded=0;whiteSpace=wrap;fontSize=7;html=1;" vertex="1" parent="WIyWlLk6GJQsqaUBKTNV-1">
          <mxGeometry x="360" y="669.9999999999999" width="169.13" height="28.9" as="geometry" />
        </mxCell>
        <mxCell id="8dFsJCpf3x3U8wEW675l-50" style="edgeStyle=orthogonalEdgeStyle;rounded=0;orthogonalLoop=1;jettySize=auto;html=1;entryX=0;entryY=0.5;entryDx=0;entryDy=0;" edge="1" parent="WIyWlLk6GJQsqaUBKTNV-1" source="8dFsJCpf3x3U8wEW675l-51" target="8dFsJCpf3x3U8wEW675l-61">
          <mxGeometry relative="1" as="geometry">
            <Array as="points">
              <mxPoint x="600" y="764" />
              <mxPoint x="600" y="536" />
            </Array>
          </mxGeometry>
        </mxCell>
        <mxCell id="8dFsJCpf3x3U8wEW675l-51" value="mobileNo = parameters[i].getValue()" style="rounded=0;whiteSpace=wrap;fontSize=7;html=1;" vertex="1" parent="WIyWlLk6GJQsqaUBKTNV-1">
          <mxGeometry x="360" y="749.9999999999999" width="169.13" height="28.9" as="geometry" />
        </mxCell>
        <mxCell id="8dFsJCpf3x3U8wEW675l-52" style="edgeStyle=orthogonalEdgeStyle;rounded=0;orthogonalLoop=1;jettySize=auto;html=1;entryX=0;entryY=0.5;entryDx=0;entryDy=0;" edge="1" parent="WIyWlLk6GJQsqaUBKTNV-1" source="8dFsJCpf3x3U8wEW675l-53" target="8dFsJCpf3x3U8wEW675l-61">
          <mxGeometry relative="1" as="geometry">
            <Array as="points">
              <mxPoint x="600" y="844" />
              <mxPoint x="600" y="536" />
            </Array>
          </mxGeometry>
        </mxCell>
        <mxCell id="8dFsJCpf3x3U8wEW675l-53" value="portActivationDate = parameters[i].getValue()" style="rounded=0;whiteSpace=wrap;fontSize=7;html=1;" vertex="1" parent="WIyWlLk6GJQsqaUBKTNV-1">
          <mxGeometry x="360" y="829.9999999999999" width="169.13" height="28.9" as="geometry" />
        </mxCell>
        <mxCell id="8dFsJCpf3x3U8wEW675l-54" style="edgeStyle=orthogonalEdgeStyle;rounded=0;orthogonalLoop=1;jettySize=auto;html=1;entryX=0;entryY=0.5;entryDx=0;entryDy=0;" edge="1" parent="WIyWlLk6GJQsqaUBKTNV-1" source="8dFsJCpf3x3U8wEW675l-55" target="8dFsJCpf3x3U8wEW675l-61">
          <mxGeometry relative="1" as="geometry">
            <Array as="points">
              <mxPoint x="600" y="924" />
              <mxPoint x="600" y="536" />
            </Array>
          </mxGeometry>
        </mxCell>
        <mxCell id="8dFsJCpf3x3U8wEW675l-55" value="verifyStatus = parameters[i].getValue()" style="rounded=0;whiteSpace=wrap;fontSize=7;html=1;" vertex="1" parent="WIyWlLk6GJQsqaUBKTNV-1">
          <mxGeometry x="360" y="909.9999999999999" width="169.13" height="28.9" as="geometry" />
        </mxCell>
        <mxCell id="8dFsJCpf3x3U8wEW675l-56" style="edgeStyle=orthogonalEdgeStyle;rounded=0;orthogonalLoop=1;jettySize=auto;html=1;entryX=0;entryY=0.5;entryDx=0;entryDy=0;" edge="1" parent="WIyWlLk6GJQsqaUBKTNV-1" source="8dFsJCpf3x3U8wEW675l-57" target="8dFsJCpf3x3U8wEW675l-61">
          <mxGeometry relative="1" as="geometry">
            <Array as="points">
              <mxPoint x="600" y="1004" />
              <mxPoint x="600" y="536" />
            </Array>
          </mxGeometry>
        </mxCell>
        <mxCell id="8dFsJCpf3x3U8wEW675l-57" value="rejectReason = parameters[i].getValue()" style="rounded=0;whiteSpace=wrap;fontSize=7;html=1;" vertex="1" parent="WIyWlLk6GJQsqaUBKTNV-1">
          <mxGeometry x="360" y="990" width="169.13" height="28.9" as="geometry" />
        </mxCell>
        <mxCell id="8dFsJCpf3x3U8wEW675l-58" style="edgeStyle=orthogonalEdgeStyle;rounded=0;orthogonalLoop=1;jettySize=auto;html=1;entryX=0;entryY=0.5;entryDx=0;entryDy=0;" edge="1" parent="WIyWlLk6GJQsqaUBKTNV-1" source="8dFsJCpf3x3U8wEW675l-59" target="8dFsJCpf3x3U8wEW675l-61">
          <mxGeometry relative="1" as="geometry">
            <Array as="points">
              <mxPoint x="600" y="1084" />
              <mxPoint x="600" y="536" />
            </Array>
          </mxGeometry>
        </mxCell>
        <mxCell id="8dFsJCpf3x3U8wEW675l-59" value="correctPinCode = parameters[i].getValue()" style="rounded=0;whiteSpace=wrap;fontSize=7;html=1;" vertex="1" parent="WIyWlLk6GJQsqaUBKTNV-1">
          <mxGeometry x="360" y="1070" width="169.13" height="28.9" as="geometry" />
        </mxCell>
        <mxCell id="8dFsJCpf3x3U8wEW675l-60" style="edgeStyle=orthogonalEdgeStyle;rounded=0;orthogonalLoop=1;jettySize=auto;html=1;" edge="1" parent="WIyWlLk6GJQsqaUBKTNV-1" source="8dFsJCpf3x3U8wEW675l-61" target="8dFsJCpf3x3U8wEW675l-63">
          <mxGeometry relative="1" as="geometry" />
        </mxCell>
        <mxCell id="8dFsJCpf3x3U8wEW675l-61" value="ParameterList parameterList = new ParameterList()" style="rounded=0;whiteSpace=wrap;fontSize=7;html=1;" vertex="1" parent="WIyWlLk6GJQsqaUBKTNV-1">
          <mxGeometry x="680" y="527.62" width="170" height="15.86" as="geometry" />
        </mxCell>
        <mxCell id="8dFsJCpf3x3U8wEW675l-62" style="edgeStyle=orthogonalEdgeStyle;rounded=0;orthogonalLoop=1;jettySize=auto;html=1;" edge="1" parent="WIyWlLk6GJQsqaUBKTNV-1" source="8dFsJCpf3x3U8wEW675l-63" target="8dFsJCpf3x3U8wEW675l-65">
          <mxGeometry relative="1" as="geometry" />
        </mxCell>
        <mxCell id="8dFsJCpf3x3U8wEW675l-63" value="Parameter[] parameters = null" style="rounded=0;whiteSpace=wrap;fontSize=7;html=1;" vertex="1" parent="WIyWlLk6GJQsqaUBKTNV-1">
          <mxGeometry x="680" y="574.14" width="170" height="15.86" as="geometry" />
        </mxCell>
        <mxCell id="8dFsJCpf3x3U8wEW675l-64" value="" style="edgeStyle=orthogonalEdgeStyle;rounded=0;orthogonalLoop=1;jettySize=auto;html=1;" edge="1" parent="WIyWlLk6GJQsqaUBKTNV-1" source="8dFsJCpf3x3U8wEW675l-65" target="8dFsJCpf3x3U8wEW675l-67">
          <mxGeometry relative="1" as="geometry" />
        </mxCell>
        <mxCell id="8dFsJCpf3x3U8wEW675l-65" value="Parameter parameter = new Parameter()" style="rounded=0;whiteSpace=wrap;fontSize=7;html=1;" vertex="1" parent="WIyWlLk6GJQsqaUBKTNV-1">
          <mxGeometry x="680" y="620" width="170" height="15.86" as="geometry" />
        </mxCell>
        <mxCell id="8dFsJCpf3x3U8wEW675l-66" value="" style="edgeStyle=orthogonalEdgeStyle;rounded=0;orthogonalLoop=1;jettySize=auto;html=1;" edge="1" parent="WIyWlLk6GJQsqaUBKTNV-1" source="8dFsJCpf3x3U8wEW675l-67" target="8dFsJCpf3x3U8wEW675l-69">
          <mxGeometry relative="1" as="geometry" />
        </mxCell>
        <mxCell id="8dFsJCpf3x3U8wEW675l-67" value="parameters = new Parameter[2]" style="rounded=0;whiteSpace=wrap;fontSize=7;html=1;" vertex="1" parent="WIyWlLk6GJQsqaUBKTNV-1">
          <mxGeometry x="680" y="670" width="170" height="15.86" as="geometry" />
        </mxCell>
        <mxCell id="8dFsJCpf3x3U8wEW675l-68" value="" style="edgeStyle=orthogonalEdgeStyle;rounded=0;orthogonalLoop=1;jettySize=auto;html=1;" edge="1" parent="WIyWlLk6GJQsqaUBKTNV-1" source="8dFsJCpf3x3U8wEW675l-69" target="8dFsJCpf3x3U8wEW675l-71">
          <mxGeometry relative="1" as="geometry" />
        </mxCell>
        <mxCell id="8dFsJCpf3x3U8wEW675l-69" value="SffUser sffUser = new SffUser() &amp;amp;&amp;amp;&lt;br&gt;sffUser.setUserLogin(&quot;SFFNPG&quot;)" style="rounded=0;whiteSpace=wrap;fontSize=7;html=1;" vertex="1" parent="WIyWlLk6GJQsqaUBKTNV-1">
          <mxGeometry x="680" y="720" width="170" height="30" as="geometry" />
        </mxCell>
        <mxCell id="8dFsJCpf3x3U8wEW675l-70" value="" style="edgeStyle=orthogonalEdgeStyle;rounded=0;orthogonalLoop=1;jettySize=auto;html=1;" edge="1" parent="WIyWlLk6GJQsqaUBKTNV-1" source="8dFsJCpf3x3U8wEW675l-71" target="8dFsJCpf3x3U8wEW675l-73">
          <mxGeometry relative="1" as="geometry" />
        </mxCell>
        <mxCell id="8dFsJCpf3x3U8wEW675l-71" value="UserInfo userInfo=null &amp;amp;&amp;amp;&lt;br&gt;userInfo = userService.getUserInfo(sffUser)" style="rounded=0;whiteSpace=wrap;fontSize=7;html=1;" vertex="1" parent="WIyWlLk6GJQsqaUBKTNV-1">
          <mxGeometry x="680" y="785" width="170" height="30" as="geometry" />
        </mxCell>
        <mxCell id="8dFsJCpf3x3U8wEW675l-72" value="" style="edgeStyle=orthogonalEdgeStyle;rounded=0;orthogonalLoop=1;jettySize=auto;html=1;" edge="1" parent="WIyWlLk6GJQsqaUBKTNV-1" source="8dFsJCpf3x3U8wEW675l-73" target="8dFsJCpf3x3U8wEW675l-76">
          <mxGeometry relative="1" as="geometry" />
        </mxCell>
        <mxCell id="8dFsJCpf3x3U8wEW675l-73" value="set mnpPortRequestList = new ArrayList&amp;lt;SffMnpPortRequest&amp;gt;()" style="rounded=0;whiteSpace=wrap;fontSize=7;html=1;" vertex="1" parent="WIyWlLk6GJQsqaUBKTNV-1">
          <mxGeometry x="680" y="850" width="170" height="30" as="geometry" />
        </mxCell>
        <mxCell id="8dFsJCpf3x3U8wEW675l-74" value="" style="edgeStyle=orthogonalEdgeStyle;rounded=0;orthogonalLoop=1;jettySize=auto;html=1;" edge="1" parent="WIyWlLk6GJQsqaUBKTNV-1" source="8dFsJCpf3x3U8wEW675l-76" target="8dFsJCpf3x3U8wEW675l-78">
          <mxGeometry relative="1" as="geometry" />
        </mxCell>
        <mxCell id="8dFsJCpf3x3U8wEW675l-75" value="true" style="edgeLabel;html=1;align=center;verticalAlign=middle;resizable=0;points=[];fontSize=7;" connectable="0" vertex="1" parent="8dFsJCpf3x3U8wEW675l-74">
          <mxGeometry x="-0.2895" y="1" relative="1" as="geometry">
            <mxPoint as="offset" />
          </mxGeometry>
        </mxCell>
        <mxCell id="8dFsJCpf3x3U8wEW675l-76" value="requestType &lt;br&gt;=&amp;nbsp;EAssetOrderType.PORT_OUT.orderType" style="rhombus;whiteSpace=wrap;fontSize=7;html=1;" vertex="1" parent="WIyWlLk6GJQsqaUBKTNV-1">
          <mxGeometry x="656.4499999999999" y="920" width="217.11" height="40" as="geometry" />
        </mxCell>
        <mxCell id="8dFsJCpf3x3U8wEW675l-77" value="" style="edgeStyle=orthogonalEdgeStyle;rounded=0;orthogonalLoop=1;jettySize=auto;html=1;fontSize=7;" edge="1" parent="WIyWlLk6GJQsqaUBKTNV-1" source="8dFsJCpf3x3U8wEW675l-78" target="8dFsJCpf3x3U8wEW675l-82">
          <mxGeometry relative="1" as="geometry" />
        </mxCell>
        <mxCell id="8dFsJCpf3x3U8wEW675l-78" value="SffMnpPortRequest sffMnpPortRequest &lt;br&gt;= new SffMnpPortRequest()" style="rounded=0;whiteSpace=wrap;fontSize=7;html=1;" vertex="1" parent="WIyWlLk6GJQsqaUBKTNV-1">
          <mxGeometry x="680" y="1000" width="170" height="30" as="geometry" />
        </mxCell>
        <mxCell id="8dFsJCpf3x3U8wEW675l-79" value="" style="edgeStyle=orthogonalEdgeStyle;rounded=0;orthogonalLoop=1;jettySize=auto;html=1;fontSize=7;" edge="1" parent="WIyWlLk6GJQsqaUBKTNV-1" source="8dFsJCpf3x3U8wEW675l-82" target="8dFsJCpf3x3U8wEW675l-84">
          <mxGeometry relative="1" as="geometry" />
        </mxCell>
        <mxCell id="8dFsJCpf3x3U8wEW675l-80" style="edgeStyle=orthogonalEdgeStyle;rounded=0;orthogonalLoop=1;jettySize=auto;html=1;fontSize=7;" edge="1" parent="WIyWlLk6GJQsqaUBKTNV-1" source="8dFsJCpf3x3U8wEW675l-82" target="8dFsJCpf3x3U8wEW675l-88">
          <mxGeometry relative="1" as="geometry" />
        </mxCell>
        <mxCell id="8dFsJCpf3x3U8wEW675l-81" value="else if" style="edgeLabel;html=1;align=center;verticalAlign=middle;resizable=0;points=[];fontSize=7;" connectable="0" vertex="1" parent="8dFsJCpf3x3U8wEW675l-80">
          <mxGeometry x="-0.1547" relative="1" as="geometry">
            <mxPoint as="offset" />
          </mxGeometry>
        </mxCell>
        <mxCell id="8dFsJCpf3x3U8wEW675l-82" value="!StringUtils.isEmpty(orderPortId)" style="rhombus;whiteSpace=wrap;fontSize=7;html=1;" vertex="1" parent="WIyWlLk6GJQsqaUBKTNV-1">
          <mxGeometry x="693.22" y="1070" width="143.56" height="40" as="geometry" />
        </mxCell>
        <mxCell id="8dFsJCpf3x3U8wEW675l-83" style="edgeStyle=orthogonalEdgeStyle;rounded=0;orthogonalLoop=1;jettySize=auto;html=1;entryX=1;entryY=0.5;entryDx=0;entryDy=0;fontSize=7;" edge="1" parent="WIyWlLk6GJQsqaUBKTNV-1" source="8dFsJCpf3x3U8wEW675l-84" target="8dFsJCpf3x3U8wEW675l-90">
          <mxGeometry relative="1" as="geometry">
            <Array as="points">
              <mxPoint x="1080" y="1090" />
              <mxPoint x="1080" y="1248" />
            </Array>
          </mxGeometry>
        </mxCell>
        <mxCell id="8dFsJCpf3x3U8wEW675l-84" value="sffMnpPortRequest.setDonorPortOutId(orderPortId)" style="rounded=0;whiteSpace=wrap;fontSize=7;html=1;" vertex="1" parent="WIyWlLk6GJQsqaUBKTNV-1">
          <mxGeometry x="880" y="1082.07" width="170" height="15.86" as="geometry" />
        </mxCell>
        <mxCell id="8dFsJCpf3x3U8wEW675l-85" style="edgeStyle=orthogonalEdgeStyle;rounded=0;orthogonalLoop=1;jettySize=auto;html=1;entryX=1;entryY=0.5;entryDx=0;entryDy=0;fontSize=7;" edge="1" parent="WIyWlLk6GJQsqaUBKTNV-1" source="8dFsJCpf3x3U8wEW675l-86" target="8dFsJCpf3x3U8wEW675l-90">
          <mxGeometry relative="1" as="geometry">
            <Array as="points">
              <mxPoint x="1080" y="1170" />
              <mxPoint x="1080" y="1248" />
            </Array>
          </mxGeometry>
        </mxCell>
        <mxCell id="8dFsJCpf3x3U8wEW675l-86" value="sffMnpPortRequest.setClhId(cLHId)" style="rounded=0;whiteSpace=wrap;fontSize=7;html=1;" vertex="1" parent="WIyWlLk6GJQsqaUBKTNV-1">
          <mxGeometry x="880" y="1162.07" width="170" height="15.86" as="geometry" />
        </mxCell>
        <mxCell id="8dFsJCpf3x3U8wEW675l-87" value="" style="edgeStyle=orthogonalEdgeStyle;rounded=0;orthogonalLoop=1;jettySize=auto;html=1;fontSize=7;" edge="1" parent="WIyWlLk6GJQsqaUBKTNV-1" source="8dFsJCpf3x3U8wEW675l-88" target="8dFsJCpf3x3U8wEW675l-86">
          <mxGeometry relative="1" as="geometry" />
        </mxCell>
        <mxCell id="8dFsJCpf3x3U8wEW675l-88" value="!StringUtils.isEmpty(cLHId)" style="rhombus;whiteSpace=wrap;fontSize=7;html=1;" vertex="1" parent="WIyWlLk6GJQsqaUBKTNV-1">
          <mxGeometry x="693.22" y="1150" width="143.56" height="40" as="geometry" />
        </mxCell>
        <mxCell id="8dFsJCpf3x3U8wEW675l-89" value="" style="edgeStyle=orthogonalEdgeStyle;rounded=0;orthogonalLoop=1;jettySize=auto;html=1;fontSize=7;" edge="1" parent="WIyWlLk6GJQsqaUBKTNV-1" source="8dFsJCpf3x3U8wEW675l-90" target="8dFsJCpf3x3U8wEW675l-92">
          <mxGeometry relative="1" as="geometry" />
        </mxCell>
        <mxCell id="8dFsJCpf3x3U8wEW675l-90" value="mnpPortRequestList = sffMnpPortRequestService.getByCriteria(sffMnpPortRequest)" style="rounded=0;whiteSpace=wrap;fontSize=7;html=1;" vertex="1" parent="WIyWlLk6GJQsqaUBKTNV-1">
          <mxGeometry x="814" y="1240" width="290" height="15.86" as="geometry" />
        </mxCell>
        <mxCell id="8dFsJCpf3x3U8wEW675l-91" value="" style="edgeStyle=orthogonalEdgeStyle;rounded=0;orthogonalLoop=1;jettySize=auto;html=1;fontSize=7;" edge="1" parent="WIyWlLk6GJQsqaUBKTNV-1" source="8dFsJCpf3x3U8wEW675l-92" target="8dFsJCpf3x3U8wEW675l-94">
          <mxGeometry relative="1" as="geometry" />
        </mxCell>
        <mxCell id="8dFsJCpf3x3U8wEW675l-92" value="mnpPortRequestList!=null &lt;br&gt;&amp;amp;&amp;amp; mnpPortRequestList.size()&amp;gt;0" style="rhombus;whiteSpace=wrap;fontSize=7;html=1;" vertex="1" parent="WIyWlLk6GJQsqaUBKTNV-1">
          <mxGeometry x="885.4499999999999" y="1290" width="147.11" height="50" as="geometry" />
        </mxCell>
        <mxCell id="8dFsJCpf3x3U8wEW675l-93" value="" style="edgeStyle=orthogonalEdgeStyle;rounded=0;orthogonalLoop=1;jettySize=auto;html=1;fontSize=7;" edge="1" parent="WIyWlLk6GJQsqaUBKTNV-1" source="8dFsJCpf3x3U8wEW675l-94" target="8dFsJCpf3x3U8wEW675l-96">
          <mxGeometry relative="1" as="geometry" />
        </mxCell>
        <mxCell id="8dFsJCpf3x3U8wEW675l-94" value="set sffMnpPortRequestResult = mnpPortRequestList.get(0)" style="rounded=0;whiteSpace=wrap;fontSize=7;html=1;" vertex="1" parent="WIyWlLk6GJQsqaUBKTNV-1">
          <mxGeometry x="859" y="1380" width="200" height="15.86" as="geometry" />
        </mxCell>
        <mxCell id="8dFsJCpf3x3U8wEW675l-95" style="edgeStyle=orthogonalEdgeStyle;rounded=0;orthogonalLoop=1;jettySize=auto;html=1;fontSize=7;" edge="1" parent="WIyWlLk6GJQsqaUBKTNV-1" source="8dFsJCpf3x3U8wEW675l-96" target="8dFsJCpf3x3U8wEW675l-99">
          <mxGeometry relative="1" as="geometry" />
        </mxCell>
        <mxCell id="8dFsJCpf3x3U8wEW675l-96" value="verifyStatus &lt;br&gt;== [&quot;Cancel&quot; || &quot;Approve&quot; || &quot;Reject&quot;]" style="rhombus;whiteSpace=wrap;fontSize=7;html=1;" vertex="1" parent="WIyWlLk6GJQsqaUBKTNV-1">
          <mxGeometry x="874.73" y="1440" width="168.55" height="40" as="geometry" />
        </mxCell>
        <mxCell id="8dFsJCpf3x3U8wEW675l-97" value="" style="edgeStyle=orthogonalEdgeStyle;rounded=0;orthogonalLoop=1;jettySize=auto;html=1;fontSize=7;" edge="1" parent="WIyWlLk6GJQsqaUBKTNV-1" source="8dFsJCpf3x3U8wEW675l-99" target="8dFsJCpf3x3U8wEW675l-106">
          <mxGeometry relative="1" as="geometry" />
        </mxCell>
        <mxCell id="8dFsJCpf3x3U8wEW675l-98" style="edgeStyle=orthogonalEdgeStyle;rounded=0;orthogonalLoop=1;jettySize=auto;html=1;fontSize=7;" edge="1" parent="WIyWlLk6GJQsqaUBKTNV-1" source="8dFsJCpf3x3U8wEW675l-99" target="8dFsJCpf3x3U8wEW675l-102">
          <mxGeometry relative="1" as="geometry" />
        </mxCell>
        <mxCell id="8dFsJCpf3x3U8wEW675l-99" value="&lt;span style=&quot;font-size: 7px&quot;&gt;verifyStatus.equals(&quot;Cancel&quot;)&lt;/span&gt;" style="rhombus;whiteSpace=wrap;fontSize=7;html=1;" vertex="1" parent="WIyWlLk6GJQsqaUBKTNV-1">
          <mxGeometry x="874.72" y="1510" width="168.55" height="30" as="geometry" />
        </mxCell>
        <mxCell id="8dFsJCpf3x3U8wEW675l-100" value="" style="edgeStyle=orthogonalEdgeStyle;rounded=0;orthogonalLoop=1;jettySize=auto;html=1;fontSize=7;" edge="1" parent="WIyWlLk6GJQsqaUBKTNV-1" source="8dFsJCpf3x3U8wEW675l-102" target="8dFsJCpf3x3U8wEW675l-108">
          <mxGeometry relative="1" as="geometry" />
        </mxCell>
        <mxCell id="8dFsJCpf3x3U8wEW675l-101" style="edgeStyle=orthogonalEdgeStyle;rounded=0;orthogonalLoop=1;jettySize=auto;html=1;fontSize=7;" edge="1" parent="WIyWlLk6GJQsqaUBKTNV-1" source="8dFsJCpf3x3U8wEW675l-102" target="8dFsJCpf3x3U8wEW675l-104">
          <mxGeometry relative="1" as="geometry" />
        </mxCell>
        <mxCell id="8dFsJCpf3x3U8wEW675l-102" value="&lt;span style=&quot;font-size: 7px&quot;&gt;verifyStatus.equals(&quot;Reject&quot;) &amp;amp;&amp;amp; ValueTypeHelper.isEmptyValue(orderPortId)&lt;/span&gt;" style="rhombus;whiteSpace=wrap;fontSize=7;html=1;" vertex="1" parent="WIyWlLk6GJQsqaUBKTNV-1">
          <mxGeometry x="854.36" y="1570" width="209.28" height="50" as="geometry" />
        </mxCell>
        <mxCell id="8dFsJCpf3x3U8wEW675l-103" value="" style="edgeStyle=orthogonalEdgeStyle;rounded=0;orthogonalLoop=1;jettySize=auto;html=1;fontSize=7;" edge="1" parent="WIyWlLk6GJQsqaUBKTNV-1" source="8dFsJCpf3x3U8wEW675l-104" target="8dFsJCpf3x3U8wEW675l-110">
          <mxGeometry relative="1" as="geometry" />
        </mxCell>
        <mxCell id="8dFsJCpf3x3U8wEW675l-104" value="&lt;span style=&quot;font-size: 7px&quot;&gt;verifyStatus.equals(&quot;Reject&quot;) &amp;amp;&amp;amp; !ValueTypeHelper.isEmptyValue(orderPortId)&lt;/span&gt;" style="rhombus;whiteSpace=wrap;fontSize=7;html=1;" vertex="1" parent="WIyWlLk6GJQsqaUBKTNV-1">
          <mxGeometry x="854.36" y="1650" width="209.28" height="50" as="geometry" />
        </mxCell>
        <mxCell id="8dFsJCpf3x3U8wEW675l-105" value="" style="edgeStyle=orthogonalEdgeStyle;rounded=0;orthogonalLoop=1;jettySize=auto;html=1;fontSize=7;" edge="1" parent="WIyWlLk6GJQsqaUBKTNV-1" source="8dFsJCpf3x3U8wEW675l-106" target="8dFsJCpf3x3U8wEW675l-112">
          <mxGeometry relative="1" as="geometry" />
        </mxCell>
        <mxCell id="8dFsJCpf3x3U8wEW675l-106" value="&lt;span style=&quot;font-size: 7px&quot;&gt;statusUpdate = &quot;Cancelled&quot; &amp;amp;&amp;amp;&lt;/span&gt;&lt;br&gt;&lt;span style=&quot;font-size: 7px&quot;&gt;sffMnpPortRequestResult.setStatusCd(statusUpdate)&lt;/span&gt;" style="rounded=0;whiteSpace=wrap;fontSize=7;html=1;" vertex="1" parent="WIyWlLk6GJQsqaUBKTNV-1">
          <mxGeometry x="1134" y="1510" width="170" height="30" as="geometry" />
        </mxCell>
        <mxCell id="8dFsJCpf3x3U8wEW675l-107" style="edgeStyle=orthogonalEdgeStyle;rounded=0;orthogonalLoop=1;jettySize=auto;html=1;entryX=0;entryY=0.5;entryDx=0;entryDy=0;fontSize=7;" edge="1" parent="WIyWlLk6GJQsqaUBKTNV-1" source="8dFsJCpf3x3U8wEW675l-108" target="8dFsJCpf3x3U8wEW675l-112">
          <mxGeometry relative="1" as="geometry" />
        </mxCell>
        <mxCell id="8dFsJCpf3x3U8wEW675l-108" value="&lt;span style=&quot;font-size: 7px&quot;&gt;statusUpdate = &quot;Reject&quot; &amp;amp;&amp;amp;&lt;/span&gt;&lt;br&gt;&lt;span style=&quot;font-size: 7px&quot;&gt;sffMnpPortRequestResult.setStatusCd(statusUpdate)&lt;/span&gt;" style="rounded=0;whiteSpace=wrap;fontSize=7;html=1;" vertex="1" parent="WIyWlLk6GJQsqaUBKTNV-1">
          <mxGeometry x="1134" y="1580" width="170" height="30" as="geometry" />
        </mxCell>
        <mxCell id="8dFsJCpf3x3U8wEW675l-109" style="edgeStyle=orthogonalEdgeStyle;rounded=0;orthogonalLoop=1;jettySize=auto;html=1;entryX=0;entryY=0.5;entryDx=0;entryDy=0;fontSize=7;" edge="1" parent="WIyWlLk6GJQsqaUBKTNV-1" source="8dFsJCpf3x3U8wEW675l-110" target="8dFsJCpf3x3U8wEW675l-112">
          <mxGeometry relative="1" as="geometry" />
        </mxCell>
        <mxCell id="8dFsJCpf3x3U8wEW675l-110" value="&lt;span style=&quot;font-size: 7px&quot;&gt;statusUpdate = &quot;Cancelled&quot; &amp;amp;&amp;amp;&lt;/span&gt;&lt;br&gt;&lt;span style=&quot;font-size: 7px&quot;&gt;sffMnpPortRequestResult.setStatusCd(statusUpdate)&lt;/span&gt;" style="rounded=0;whiteSpace=wrap;fontSize=7;html=1;" vertex="1" parent="WIyWlLk6GJQsqaUBKTNV-1">
          <mxGeometry x="1134" y="1660" width="170" height="30" as="geometry" />
        </mxCell>
        <mxCell id="8dFsJCpf3x3U8wEW675l-111" value="" style="edgeStyle=orthogonalEdgeStyle;rounded=0;orthogonalLoop=1;jettySize=auto;html=1;fontSize=7;" edge="1" parent="WIyWlLk6GJQsqaUBKTNV-1" source="8dFsJCpf3x3U8wEW675l-112" target="8dFsJCpf3x3U8wEW675l-114">
          <mxGeometry relative="1" as="geometry" />
        </mxCell>
        <mxCell id="8dFsJCpf3x3U8wEW675l-112" value="&lt;span style=&quot;font-size: 7px&quot;&gt;set sffMnpPortRequestResult &lt;br&gt;StatusDt, LastUpd, LastUpdBy&lt;/span&gt;" style="rounded=0;whiteSpace=wrap;fontSize=7;html=1;" vertex="1" parent="WIyWlLk6GJQsqaUBKTNV-1">
          <mxGeometry x="1374" y="1510" width="170" height="30" as="geometry" />
        </mxCell>
        <mxCell id="8dFsJCpf3x3U8wEW675l-113" value="" style="edgeStyle=orthogonalEdgeStyle;rounded=0;orthogonalLoop=1;jettySize=auto;html=1;fontSize=7;" edge="1" parent="WIyWlLk6GJQsqaUBKTNV-1" source="8dFsJCpf3x3U8wEW675l-114" target="8dFsJCpf3x3U8wEW675l-116">
          <mxGeometry relative="1" as="geometry" />
        </mxCell>
        <mxCell id="8dFsJCpf3x3U8wEW675l-114" value="&lt;span style=&quot;font-size: 7px&quot;&gt;!ValueTypeHelper.isEmptyValue&lt;br&gt;(portActivationDate)&lt;/span&gt;" style="rhombus;whiteSpace=wrap;fontSize=7;html=1;" vertex="1" parent="WIyWlLk6GJQsqaUBKTNV-1">
          <mxGeometry x="1385.44" y="1570" width="147.11" height="50" as="geometry" />
        </mxCell>
        <mxCell id="8dFsJCpf3x3U8wEW675l-115" style="edgeStyle=orthogonalEdgeStyle;rounded=0;orthogonalLoop=1;jettySize=auto;html=1;entryX=0.5;entryY=0;entryDx=0;entryDy=0;fontSize=7;" edge="1" parent="WIyWlLk6GJQsqaUBKTNV-1" source="8dFsJCpf3x3U8wEW675l-116" target="8dFsJCpf3x3U8wEW675l-119">
          <mxGeometry relative="1" as="geometry">
            <Array as="points">
              <mxPoint x="1459" y="1720" />
              <mxPoint x="765" y="1720" />
            </Array>
          </mxGeometry>
        </mxCell>
        <mxCell id="8dFsJCpf3x3U8wEW675l-116" value="&lt;div&gt;&lt;span style=&quot;font-size: 7px&quot;&gt;sffMnpPortRequestResult.setTargetPortingDate&lt;br&gt;(&lt;/span&gt;&lt;span&gt;SFFDataUtility.convertStringToDateByFormat&lt;br&gt;(portActivationDate, &quot;dd/MM/yyyy HH:mm:ss&quot;))&lt;/span&gt;&lt;/div&gt;" style="rounded=0;whiteSpace=wrap;fontSize=7;html=1;" vertex="1" parent="WIyWlLk6GJQsqaUBKTNV-1">
          <mxGeometry x="1351.5" y="1650" width="215" height="30" as="geometry" />
        </mxCell>
        <mxCell id="8dFsJCpf3x3U8wEW675l-117" value="" style="edgeStyle=orthogonalEdgeStyle;rounded=0;orthogonalLoop=1;jettySize=auto;html=1;fontSize=7;" edge="1" parent="WIyWlLk6GJQsqaUBKTNV-1" source="8dFsJCpf3x3U8wEW675l-119" target="8dFsJCpf3x3U8wEW675l-121">
          <mxGeometry relative="1" as="geometry" />
        </mxCell>
        <mxCell id="8dFsJCpf3x3U8wEW675l-118" style="edgeStyle=orthogonalEdgeStyle;rounded=0;orthogonalLoop=1;jettySize=auto;html=1;entryX=0;entryY=0.5;entryDx=0;entryDy=0;fontSize=7;fontColor=#FFFFFF;" edge="1" parent="WIyWlLk6GJQsqaUBKTNV-1" source="8dFsJCpf3x3U8wEW675l-119" target="8dFsJCpf3x3U8wEW675l-130">
          <mxGeometry relative="1" as="geometry" />
        </mxCell>
        <mxCell id="8dFsJCpf3x3U8wEW675l-119" value="&lt;div&gt;&lt;span style=&quot;font-size: 7px&quot;&gt;EAssetOrderType.PORT_OUT.orderType.equals(requestType)&amp;nbsp;&lt;/span&gt;&lt;/div&gt;&lt;div&gt;&lt;span style=&quot;font-size: 7px&quot;&gt;&lt;span&gt;				&lt;/span&gt;&amp;amp;&amp;amp; (&quot;Reject&quot;.equals(verifyStatus) || &quot;Cancel&quot;.equals(verifyStatus))&lt;/span&gt;&lt;/div&gt;&lt;div&gt;&lt;span style=&quot;font-size: 7px&quot;&gt;&lt;span&gt;				&lt;/span&gt;&amp;amp;&amp;amp; ValueTypeHelper.isEmptyValue(orderPortId)&lt;/span&gt;&lt;/div&gt;" style="rhombus;whiteSpace=wrap;fontSize=7;html=1;" vertex="1" parent="WIyWlLk6GJQsqaUBKTNV-1">
          <mxGeometry x="613.22" y="1760" width="303.55" height="80" as="geometry" />
        </mxCell>
        <mxCell id="8dFsJCpf3x3U8wEW675l-120" value="" style="edgeStyle=orthogonalEdgeStyle;rounded=0;orthogonalLoop=1;jettySize=auto;html=1;fontSize=7;" edge="1" parent="WIyWlLk6GJQsqaUBKTNV-1" source="8dFsJCpf3x3U8wEW675l-121" target="8dFsJCpf3x3U8wEW675l-123">
          <mxGeometry relative="1" as="geometry" />
        </mxCell>
        <mxCell id="8dFsJCpf3x3U8wEW675l-121" value="&lt;div&gt;&lt;span style=&quot;font-size: 7px&quot;&gt;parameter.setName(&quot;status&quot;) &amp;amp;&amp;amp;&amp;nbsp;&lt;/span&gt;&lt;span&gt;parameter.setValue(&quot;Success&quot;) &lt;br&gt;&amp;amp;&amp;amp;&amp;nbsp;&lt;/span&gt;&lt;span&gt;parameters[0] = parameter&lt;/span&gt;&lt;/div&gt;" style="rounded=0;whiteSpace=wrap;fontSize=7;html=1;" vertex="1" parent="WIyWlLk6GJQsqaUBKTNV-1">
          <mxGeometry x="680" y="1890" width="170" height="40" as="geometry" />
        </mxCell>
        <mxCell id="8dFsJCpf3x3U8wEW675l-122" value="" style="edgeStyle=orthogonalEdgeStyle;rounded=0;orthogonalLoop=1;jettySize=auto;html=1;fontSize=7;" edge="1" parent="WIyWlLk6GJQsqaUBKTNV-1" source="8dFsJCpf3x3U8wEW675l-123" target="8dFsJCpf3x3U8wEW675l-125">
          <mxGeometry relative="1" as="geometry" />
        </mxCell>
        <mxCell id="8dFsJCpf3x3U8wEW675l-123" value="&lt;div&gt;&lt;span style=&quot;font-size: 7px&quot;&gt;parameter = new Parameter()&lt;/span&gt;&lt;/div&gt;&lt;div&gt;&lt;span style=&quot;font-size: 7px&quot;&gt;&lt;span&gt;&lt;/span&gt;&amp;amp;&amp;amp; parameter.setName(&quot;errorMessage&quot;)&lt;/span&gt;&lt;/div&gt;&lt;div&gt;&lt;span style=&quot;font-size: 7px&quot;&gt;&lt;span&gt;&lt;/span&gt;&amp;amp;&amp;amp; parameters[1] = parameter&lt;/span&gt;&lt;/div&gt;" style="rounded=0;whiteSpace=wrap;fontSize=7;html=1;" vertex="1" parent="WIyWlLk6GJQsqaUBKTNV-1">
          <mxGeometry x="680" y="1980" width="170" height="40" as="geometry" />
        </mxCell>
        <mxCell id="8dFsJCpf3x3U8wEW675l-124" value="" style="edgeStyle=orthogonalEdgeStyle;rounded=0;orthogonalLoop=1;jettySize=auto;html=1;fontSize=7;fontColor=#FFFFFF;" edge="1" parent="WIyWlLk6GJQsqaUBKTNV-1" source="8dFsJCpf3x3U8wEW675l-125" target="8dFsJCpf3x3U8wEW675l-126">
          <mxGeometry relative="1" as="geometry" />
        </mxCell>
        <mxCell id="8dFsJCpf3x3U8wEW675l-125" value="&lt;div&gt;&lt;span style=&quot;font-size: 7px&quot;&gt;parameterList.setParameter(parameters) &amp;amp;&amp;amp;&lt;/span&gt;&lt;/div&gt;&lt;div&gt;&lt;span style=&quot;font-size: 7px&quot;&gt;&lt;span&gt;				&lt;/span&gt;sffResponse.setParameterList(parameterList)&lt;/span&gt;&lt;/div&gt;&lt;div&gt;&lt;span style=&quot;font-size: 7px&quot;&gt;&lt;span&gt;&lt;/span&gt;&amp;amp;&amp;amp; String xml = myMarshal(sffResponse)&lt;/span&gt;&lt;/div&gt;&lt;div&gt;&lt;span style=&quot;font-size: 7px&quot;&gt;&lt;span&gt;&lt;/span&gt;&amp;amp;&amp;amp; logger.info(xml)&lt;/span&gt;&lt;/div&gt;" style="rounded=0;whiteSpace=wrap;fontSize=7;html=1;" vertex="1" parent="WIyWlLk6GJQsqaUBKTNV-1">
          <mxGeometry x="680.01" y="2070" width="170" height="40" as="geometry" />
        </mxCell>
        <mxCell id="8dFsJCpf3x3U8wEW675l-126" value="return sffResponse" style="rounded=1;whiteSpace=wrap;html=1;fontSize=7;fillColor=#000000;strokeColor=#000000;fontColor=#FFFFFF;" vertex="1" parent="WIyWlLk6GJQsqaUBKTNV-1">
          <mxGeometry x="518.55" y="2075" width="70" height="30" as="geometry" />
        </mxCell>
        <mxCell id="8dFsJCpf3x3U8wEW675l-127" style="edgeStyle=orthogonalEdgeStyle;rounded=0;orthogonalLoop=1;jettySize=auto;html=1;fontSize=7;fontColor=#FFFFFF;" edge="1" parent="WIyWlLk6GJQsqaUBKTNV-1" source="8dFsJCpf3x3U8wEW675l-130">
          <mxGeometry relative="1" as="geometry">
            <mxPoint x="1320" y="1800" as="targetPoint" />
          </mxGeometry>
        </mxCell>
        <mxCell id="8dFsJCpf3x3U8wEW675l-128" value="&lt;font color=&quot;#000000&quot;&gt;else&lt;/font&gt;" style="edgeLabel;html=1;align=center;verticalAlign=middle;resizable=0;points=[];fontSize=7;fontColor=#FFFFFF;" connectable="0" vertex="1" parent="8dFsJCpf3x3U8wEW675l-127">
          <mxGeometry x="-0.7922" y="2" relative="1" as="geometry">
            <mxPoint x="9" as="offset" />
          </mxGeometry>
        </mxCell>
        <mxCell id="8dFsJCpf3x3U8wEW675l-129" value="" style="edgeStyle=orthogonalEdgeStyle;rounded=0;orthogonalLoop=1;jettySize=auto;html=1;fontSize=7;fontColor=#000000;" edge="1" parent="WIyWlLk6GJQsqaUBKTNV-1" source="8dFsJCpf3x3U8wEW675l-130" target="8dFsJCpf3x3U8wEW675l-133">
          <mxGeometry relative="1" as="geometry" />
        </mxCell>
        <mxCell id="8dFsJCpf3x3U8wEW675l-130" value="&lt;span style=&quot;font-size: 7px&quot;&gt;requestType !=&amp;nbsp;&lt;/span&gt;&lt;span style=&quot;font-size: 7px&quot;&gt;emptyValue &lt;br&gt;&amp;amp;&amp;amp;&amp;nbsp;&lt;/span&gt;&lt;span style=&quot;font-size: 7px&quot;&gt;cLHId&lt;/span&gt;&amp;nbsp;!=&amp;nbsp;emptyValue &lt;br&gt;&amp;amp;&amp;amp;&lt;span style=&quot;font-size: 7px&quot;&gt;&amp;nbsp;mobileNo&lt;/span&gt;&amp;nbsp;!=&amp;nbsp;emptyValue&lt;br&gt;&amp;amp;&amp;amp;&lt;span style=&quot;font-size: 7px&quot;&gt;&amp;nbsp;verifyStatus&lt;/span&gt;&amp;nbsp;!=&amp;nbsp;emptyValue" style="rhombus;whiteSpace=wrap;fontSize=7;html=1;" vertex="1" parent="WIyWlLk6GJQsqaUBKTNV-1">
          <mxGeometry x="1040" y="1760" width="159.55" height="80" as="geometry" />
        </mxCell>
        <mxCell id="8dFsJCpf3x3U8wEW675l-131" value="" style="edgeStyle=orthogonalEdgeStyle;rounded=0;orthogonalLoop=1;jettySize=auto;html=1;fontSize=7;fontColor=#000000;" edge="1" parent="WIyWlLk6GJQsqaUBKTNV-1" source="8dFsJCpf3x3U8wEW675l-133" target="8dFsJCpf3x3U8wEW675l-135">
          <mxGeometry relative="1" as="geometry" />
        </mxCell>
        <mxCell id="8dFsJCpf3x3U8wEW675l-132" style="edgeStyle=orthogonalEdgeStyle;rounded=0;orthogonalLoop=1;jettySize=auto;html=1;fontSize=7;fontColor=#000000;" edge="1" parent="WIyWlLk6GJQsqaUBKTNV-1" source="8dFsJCpf3x3U8wEW675l-133" target="8dFsJCpf3x3U8wEW675l-151">
          <mxGeometry relative="1" as="geometry" />
        </mxCell>
        <mxCell id="8dFsJCpf3x3U8wEW675l-133" value="&lt;div&gt;&lt;span style=&quot;font-size: 7px&quot;&gt;!ValueTypeHelper.isEmptyValue(rejectReason)&amp;nbsp;&lt;/span&gt;&lt;/div&gt;&lt;div&gt;&lt;span style=&quot;font-size: 7px&quot;&gt;&lt;span&gt;						&lt;/span&gt;&amp;amp;&amp;amp; !&quot;Approve&quot;.equals(verifyStatus)&lt;/span&gt;&lt;/div&gt;&lt;div&gt;&lt;span style=&quot;font-size: 7px&quot;&gt;&lt;span&gt;						&lt;/span&gt;&amp;amp;&amp;amp; rejectReason.length()&amp;gt;=2&lt;/span&gt;&lt;/div&gt;" style="rhombus;whiteSpace=wrap;fontSize=7;html=1;" vertex="1" parent="WIyWlLk6GJQsqaUBKTNV-1">
          <mxGeometry x="1009.77" y="1870" width="220" height="80" as="geometry" />
        </mxCell>
        <mxCell id="8dFsJCpf3x3U8wEW675l-134" value="" style="edgeStyle=orthogonalEdgeStyle;rounded=0;orthogonalLoop=1;jettySize=auto;html=1;fontSize=7;fontColor=#000000;" edge="1" parent="WIyWlLk6GJQsqaUBKTNV-1" source="8dFsJCpf3x3U8wEW675l-135" target="8dFsJCpf3x3U8wEW675l-138">
          <mxGeometry relative="1" as="geometry" />
        </mxCell>
        <mxCell id="8dFsJCpf3x3U8wEW675l-135" value="&lt;div&gt;&lt;span style=&quot;font-size: 7px&quot;&gt;String messageDesc = &quot;&quot; &amp;amp;&amp;amp;&lt;/span&gt;&lt;/div&gt;&lt;div&gt;&lt;span style=&quot;font-size: 7px&quot;&gt;&lt;span&gt;					&lt;/span&gt;String[] scannerLine = rejectReason.split(&quot;[|]&quot;)&lt;/span&gt;&lt;/div&gt;" style="rounded=0;whiteSpace=wrap;fontSize=7;html=1;" vertex="1" parent="WIyWlLk6GJQsqaUBKTNV-1">
          <mxGeometry x="1290" y="1890" width="170" height="40" as="geometry" />
        </mxCell>
        <mxCell id="8dFsJCpf3x3U8wEW675l-136" value="" style="edgeStyle=orthogonalEdgeStyle;rounded=0;orthogonalLoop=1;jettySize=auto;html=1;fontSize=7;fontColor=#000000;" edge="1" parent="WIyWlLk6GJQsqaUBKTNV-1" source="8dFsJCpf3x3U8wEW675l-138" target="8dFsJCpf3x3U8wEW675l-139">
          <mxGeometry relative="1" as="geometry" />
        </mxCell>
        <mxCell id="8dFsJCpf3x3U8wEW675l-137" value="" style="edgeStyle=orthogonalEdgeStyle;rounded=0;orthogonalLoop=1;jettySize=auto;html=1;fontSize=7;fontColor=#000000;" edge="1" parent="WIyWlLk6GJQsqaUBKTNV-1" source="8dFsJCpf3x3U8wEW675l-138" target="8dFsJCpf3x3U8wEW675l-141">
          <mxGeometry relative="1" as="geometry" />
        </mxCell>
        <mxCell id="8dFsJCpf3x3U8wEW675l-138" value="&lt;span style=&quot;font-size: 7px&quot;&gt;scannerLine != null&lt;/span&gt;" style="rhombus;whiteSpace=wrap;fontSize=7;html=1;" vertex="1" parent="WIyWlLk6GJQsqaUBKTNV-1">
          <mxGeometry x="1327.5" y="1960" width="95" height="30" as="geometry" />
        </mxCell>
        <mxCell id="8dFsJCpf3x3U8wEW675l-139" value="&lt;span style=&quot;font-size: 7px&quot;&gt;messageDesc = this.getMNPRejectReason(scannerLine[0], &quot;&quot;)&lt;/span&gt;" style="rounded=0;whiteSpace=wrap;fontSize=7;html=1;" vertex="1" parent="WIyWlLk6GJQsqaUBKTNV-1">
          <mxGeometry x="1470" y="1955" width="170" height="40" as="geometry" />
        </mxCell>
        <mxCell id="8dFsJCpf3x3U8wEW675l-140" value="" style="edgeStyle=orthogonalEdgeStyle;rounded=0;orthogonalLoop=1;jettySize=auto;html=1;fontSize=7;fontColor=#000000;" edge="1" parent="WIyWlLk6GJQsqaUBKTNV-1" source="8dFsJCpf3x3U8wEW675l-141" target="8dFsJCpf3x3U8wEW675l-143">
          <mxGeometry relative="1" as="geometry" />
        </mxCell>
        <mxCell id="8dFsJCpf3x3U8wEW675l-141" value="&lt;span style=&quot;font-size: 7px&quot;&gt;StringUtils.isEmpty(messageDesc)&lt;/span&gt;" style="rhombus;whiteSpace=wrap;fontSize=7;html=1;" vertex="1" parent="WIyWlLk6GJQsqaUBKTNV-1">
          <mxGeometry x="1292.5" y="2030" width="165" height="40" as="geometry" />
        </mxCell>
        <mxCell id="8dFsJCpf3x3U8wEW675l-142" value="" style="edgeStyle=orthogonalEdgeStyle;rounded=0;orthogonalLoop=1;jettySize=auto;html=1;fontSize=7;fontColor=#000000;" edge="1" parent="WIyWlLk6GJQsqaUBKTNV-1" source="8dFsJCpf3x3U8wEW675l-143" target="8dFsJCpf3x3U8wEW675l-145">
          <mxGeometry relative="1" as="geometry" />
        </mxCell>
        <mxCell id="8dFsJCpf3x3U8wEW675l-143" value="&lt;div&gt;&lt;span style=&quot;font-size: 7px&quot;&gt;parameter.setName(&quot;status&quot;)&lt;/span&gt;&lt;/div&gt;&lt;div&gt;&lt;span style=&quot;font-size: 7px&quot;&gt;&amp;amp;&amp;amp; parameter.setValue(&quot;Error&quot;)&lt;/span&gt;&lt;/div&gt;&lt;div&gt;&lt;span style=&quot;font-size: 7px&quot;&gt;&amp;amp;&amp;amp; parameters[0] = parameter&lt;/span&gt;&lt;/div&gt;" style="rounded=0;whiteSpace=wrap;fontSize=7;html=1;" vertex="1" parent="WIyWlLk6GJQsqaUBKTNV-1">
          <mxGeometry x="1290" y="2110" width="170" height="40" as="geometry" />
        </mxCell>
        <mxCell id="8dFsJCpf3x3U8wEW675l-144" value="" style="edgeStyle=orthogonalEdgeStyle;rounded=0;orthogonalLoop=1;jettySize=auto;html=1;fontSize=7;fontColor=#000000;" edge="1" parent="WIyWlLk6GJQsqaUBKTNV-1" source="8dFsJCpf3x3U8wEW675l-145" target="8dFsJCpf3x3U8wEW675l-147">
          <mxGeometry relative="1" as="geometry" />
        </mxCell>
        <mxCell id="8dFsJCpf3x3U8wEW675l-145" value="&lt;div&gt;&lt;span style=&quot;font-size: 7px&quot;&gt;parameter = new Parameter()&lt;/span&gt;&lt;/div&gt;&lt;div&gt;&lt;span style=&quot;font-size: 7px&quot;&gt;&lt;span&gt;&lt;/span&gt;&amp;amp;&amp;amp; parameter.setName(&quot;errorMessage&quot;)&lt;/span&gt;&lt;/div&gt;&lt;div&gt;&lt;span style=&quot;font-size: 7px&quot;&gt;&lt;span&gt;&lt;/span&gt;&amp;amp;&amp;amp; parameter.setValue(&quot;Reject Reason Invalid.&quot;)&lt;br&gt;&lt;/span&gt;&lt;span&gt;&amp;amp;&amp;amp; parameters[1] = parameter&lt;/span&gt;&lt;/div&gt;" style="rounded=0;whiteSpace=wrap;fontSize=7;html=1;" vertex="1" parent="WIyWlLk6GJQsqaUBKTNV-1">
          <mxGeometry x="1290" y="2200" width="170" height="40" as="geometry" />
        </mxCell>
        <mxCell id="8dFsJCpf3x3U8wEW675l-146" value="" style="edgeStyle=orthogonalEdgeStyle;rounded=0;orthogonalLoop=1;jettySize=auto;html=1;fontSize=7;fontColor=#FFFFFF;" edge="1" parent="WIyWlLk6GJQsqaUBKTNV-1" source="8dFsJCpf3x3U8wEW675l-147" target="8dFsJCpf3x3U8wEW675l-148">
          <mxGeometry relative="1" as="geometry" />
        </mxCell>
        <mxCell id="8dFsJCpf3x3U8wEW675l-147" value="&lt;div&gt;&lt;span style=&quot;font-size: 7px&quot;&gt;parameterList.setParameter(parameters) &amp;amp;&amp;amp;&lt;/span&gt;&lt;/div&gt;&lt;div&gt;&lt;span style=&quot;font-size: 7px&quot;&gt;&lt;span&gt;				&lt;/span&gt;sffResponse.setParameterList(parameterList)&lt;/span&gt;&lt;/div&gt;&lt;div&gt;&lt;span style=&quot;font-size: 7px&quot;&gt;&lt;span&gt;&lt;/span&gt;&amp;amp;&amp;amp; String xml = myMarshal(sffResponse)&lt;/span&gt;&lt;/div&gt;&lt;div&gt;&lt;span style=&quot;font-size: 7px&quot;&gt;&lt;span&gt;&lt;/span&gt;&amp;amp;&amp;amp; logger.info(xml)&lt;/span&gt;&lt;/div&gt;" style="rounded=0;whiteSpace=wrap;fontSize=7;html=1;" vertex="1" parent="WIyWlLk6GJQsqaUBKTNV-1">
          <mxGeometry x="1290" y="2290" width="170" height="40" as="geometry" />
        </mxCell>
        <mxCell id="8dFsJCpf3x3U8wEW675l-148" value="return sffResponse" style="rounded=1;whiteSpace=wrap;html=1;fontSize=7;fillColor=#000000;strokeColor=#000000;fontColor=#FFFFFF;" vertex="1" parent="WIyWlLk6GJQsqaUBKTNV-1">
          <mxGeometry x="1520" y="2295" width="70" height="30" as="geometry" />
        </mxCell>
        <mxCell id="8dFsJCpf3x3U8wEW675l-149" value="" style="edgeStyle=orthogonalEdgeStyle;rounded=0;orthogonalLoop=1;jettySize=auto;html=1;fontSize=7;fontColor=#000000;" edge="1" parent="WIyWlLk6GJQsqaUBKTNV-1" source="8dFsJCpf3x3U8wEW675l-151" target="8dFsJCpf3x3U8wEW675l-153">
          <mxGeometry relative="1" as="geometry" />
        </mxCell>
        <mxCell id="8dFsJCpf3x3U8wEW675l-150" style="edgeStyle=orthogonalEdgeStyle;rounded=0;orthogonalLoop=1;jettySize=auto;html=1;fontSize=7;fontColor=#000000;" edge="1" parent="WIyWlLk6GJQsqaUBKTNV-1" source="8dFsJCpf3x3U8wEW675l-151" target="8dFsJCpf3x3U8wEW675l-162">
          <mxGeometry relative="1" as="geometry">
            <mxPoint x="1120" y="2720" as="targetPoint" />
          </mxGeometry>
        </mxCell>
        <mxCell id="8dFsJCpf3x3U8wEW675l-151" value="&lt;div&gt;&lt;span style=&quot;font-size: 7px&quot;&gt;&quot;Approve&quot;.equals(verifyStatus)&lt;/span&gt;&lt;/div&gt;&lt;div&gt;&lt;span style=&quot;font-size: 7px&quot;&gt;&lt;span&gt;						&lt;/span&gt;&amp;amp;&amp;amp; EAssetOrderType.PORT_IN.orderType.equals(requestType)&lt;/span&gt;&lt;/div&gt;" style="rhombus;whiteSpace=wrap;fontSize=7;html=1;" vertex="1" parent="WIyWlLk6GJQsqaUBKTNV-1">
          <mxGeometry x="984.88" y="2350" width="269.77" height="70" as="geometry" />
        </mxCell>
        <mxCell id="8dFsJCpf3x3U8wEW675l-152" value="" style="edgeStyle=orthogonalEdgeStyle;rounded=0;orthogonalLoop=1;jettySize=auto;html=1;fontSize=7;fontColor=#000000;" edge="1" parent="WIyWlLk6GJQsqaUBKTNV-1" source="8dFsJCpf3x3U8wEW675l-153" target="8dFsJCpf3x3U8wEW675l-155">
          <mxGeometry relative="1" as="geometry" />
        </mxCell>
        <mxCell id="8dFsJCpf3x3U8wEW675l-153" value="&lt;span style=&quot;font-size: 7px&quot;&gt;StringUtils.isEmpty(portActivationDate)&lt;/span&gt;" style="rhombus;whiteSpace=wrap;fontSize=7;html=1;" vertex="1" parent="WIyWlLk6GJQsqaUBKTNV-1">
          <mxGeometry x="1358.5" y="2365" width="165" height="40" as="geometry" />
        </mxCell>
        <mxCell id="8dFsJCpf3x3U8wEW675l-154" value="" style="edgeStyle=orthogonalEdgeStyle;rounded=0;orthogonalLoop=1;jettySize=auto;html=1;fontSize=7;fontColor=#000000;" edge="1" parent="WIyWlLk6GJQsqaUBKTNV-1" source="8dFsJCpf3x3U8wEW675l-155" target="8dFsJCpf3x3U8wEW675l-157">
          <mxGeometry relative="1" as="geometry" />
        </mxCell>
        <mxCell id="8dFsJCpf3x3U8wEW675l-155" value="&lt;div&gt;&lt;span style=&quot;font-size: 7px&quot;&gt;parameter.setName(&quot;status&quot;)&lt;/span&gt;&lt;/div&gt;&lt;div&gt;&lt;span style=&quot;font-size: 7px&quot;&gt;&amp;amp;&amp;amp; parameter.setValue(&quot;Error&quot;)&lt;/span&gt;&lt;/div&gt;&lt;div&gt;&lt;span style=&quot;font-size: 7px&quot;&gt;&amp;amp;&amp;amp; parameters[0] = parameter&lt;/span&gt;&lt;/div&gt;" style="rounded=0;whiteSpace=wrap;fontSize=7;html=1;" vertex="1" parent="WIyWlLk6GJQsqaUBKTNV-1">
          <mxGeometry x="1356" y="2440" width="170" height="40" as="geometry" />
        </mxCell>
        <mxCell id="8dFsJCpf3x3U8wEW675l-156" value="" style="edgeStyle=orthogonalEdgeStyle;rounded=0;orthogonalLoop=1;jettySize=auto;html=1;fontSize=7;fontColor=#000000;" edge="1" parent="WIyWlLk6GJQsqaUBKTNV-1" source="8dFsJCpf3x3U8wEW675l-157" target="8dFsJCpf3x3U8wEW675l-159">
          <mxGeometry relative="1" as="geometry" />
        </mxCell>
        <mxCell id="8dFsJCpf3x3U8wEW675l-157" value="&lt;div&gt;&lt;span style=&quot;font-size: 7px&quot;&gt;parameter = new Parameter()&lt;/span&gt;&lt;/div&gt;&lt;div&gt;&lt;span style=&quot;font-size: 7px&quot;&gt;&lt;span&gt;&lt;/span&gt;&amp;amp;&amp;amp; parameter.setName(&quot;errorMessage&quot;)&lt;/span&gt;&lt;/div&gt;&lt;div&gt;&lt;span style=&quot;font-size: 7px&quot;&gt;&amp;amp;&amp;amp; parameter.setValue(&quot;Please Input portActivationDate in case verifyStatus is Approve.&quot;)&lt;/span&gt;&lt;br&gt;&lt;span&gt;&amp;amp;&amp;amp; parameters[1] = parameter&lt;/span&gt;&lt;/div&gt;" style="rounded=0;whiteSpace=wrap;fontSize=7;html=1;" vertex="1" parent="WIyWlLk6GJQsqaUBKTNV-1">
          <mxGeometry x="1286" y="2530" width="310" height="50" as="geometry" />
        </mxCell>
        <mxCell id="8dFsJCpf3x3U8wEW675l-158" value="" style="edgeStyle=orthogonalEdgeStyle;rounded=0;orthogonalLoop=1;jettySize=auto;html=1;fontSize=7;fontColor=#FFFFFF;" edge="1" parent="WIyWlLk6GJQsqaUBKTNV-1" source="8dFsJCpf3x3U8wEW675l-159" target="8dFsJCpf3x3U8wEW675l-160">
          <mxGeometry relative="1" as="geometry" />
        </mxCell>
        <mxCell id="8dFsJCpf3x3U8wEW675l-159" value="&lt;div&gt;&lt;span style=&quot;font-size: 7px&quot;&gt;parameterList.setParameter(parameters) &amp;amp;&amp;amp;&lt;/span&gt;&lt;/div&gt;&lt;div&gt;&lt;span style=&quot;font-size: 7px&quot;&gt;&lt;span&gt;				&lt;/span&gt;sffResponse.setParameterList(parameterList)&lt;/span&gt;&lt;/div&gt;&lt;div&gt;&lt;span style=&quot;font-size: 7px&quot;&gt;&lt;span&gt;&lt;/span&gt;&amp;amp;&amp;amp; String xml = myMarshal(sffResponse)&lt;/span&gt;&lt;/div&gt;&lt;div&gt;&lt;span style=&quot;font-size: 7px&quot;&gt;&lt;span&gt;&lt;/span&gt;&amp;amp;&amp;amp; logger.info(xml)&lt;/span&gt;&lt;/div&gt;" style="rounded=0;whiteSpace=wrap;fontSize=7;html=1;" vertex="1" parent="WIyWlLk6GJQsqaUBKTNV-1">
          <mxGeometry x="1356" y="2620" width="170" height="40" as="geometry" />
        </mxCell>
        <mxCell id="8dFsJCpf3x3U8wEW675l-160" value="return sffResponse" style="rounded=1;whiteSpace=wrap;html=1;fontSize=7;fillColor=#000000;strokeColor=#000000;fontColor=#FFFFFF;" vertex="1" parent="WIyWlLk6GJQsqaUBKTNV-1">
          <mxGeometry x="1586" y="2625" width="70" height="30" as="geometry" />
        </mxCell>
        <mxCell id="8dFsJCpf3x3U8wEW675l-161" value="" style="edgeStyle=orthogonalEdgeStyle;rounded=0;orthogonalLoop=1;jettySize=auto;html=1;fontSize=7;fontColor=#000000;" edge="1" parent="WIyWlLk6GJQsqaUBKTNV-1" source="8dFsJCpf3x3U8wEW675l-162" target="8dFsJCpf3x3U8wEW675l-164">
          <mxGeometry relative="1" as="geometry" />
        </mxCell>
        <mxCell id="8dFsJCpf3x3U8wEW675l-162" value="&lt;span style=&quot;font-size: 7px&quot;&gt;set validateObject &lt;br&gt;= this.portNotification(requestType, cLHId, orderPortId, mobileNo,portActivationDate, verifyStatus, rejectReason, correctPinCode)&lt;/span&gt;" style="rounded=0;whiteSpace=wrap;fontSize=7;html=1;" vertex="1" parent="WIyWlLk6GJQsqaUBKTNV-1">
          <mxGeometry x="1034.78" y="2600" width="170" height="40" as="geometry" />
        </mxCell>
        <mxCell id="8dFsJCpf3x3U8wEW675l-163" value="" style="edgeStyle=orthogonalEdgeStyle;rounded=0;orthogonalLoop=1;jettySize=auto;html=1;" edge="1" parent="WIyWlLk6GJQsqaUBKTNV-1" source="8dFsJCpf3x3U8wEW675l-164" target="8dFsJCpf3x3U8wEW675l-165">
          <mxGeometry relative="1" as="geometry" />
        </mxCell>
        <mxCell id="8dFsJCpf3x3U8wEW675l-164" value="&lt;span style=&quot;font-size: 7px&quot;&gt;validateObject.isValid() &amp;amp;&amp;amp; !StringUtils.isEmpty(orderPortId)&lt;/span&gt;" style="rhombus;whiteSpace=wrap;fontSize=7;html=1;" vertex="1" parent="WIyWlLk6GJQsqaUBKTNV-1">
          <mxGeometry x="997.22" y="2700" width="245.12" height="40" as="geometry" />
        </mxCell>
        <mxCell id="8dFsJCpf3x3U8wEW675l-165" value="&lt;span style=&quot;font-size: 7px&quot;&gt;set&amp;nbsp;&lt;/span&gt;&lt;span style=&quot;font-size: 7px&quot;&gt;sffOrder = this.queryOrderService.queryOrderByOrderNo(orderPortId)&lt;/span&gt;" style="rounded=0;whiteSpace=wrap;fontSize=7;html=1;" vertex="1" parent="WIyWlLk6GJQsqaUBKTNV-1">
          <mxGeometry x="1023.3499999999999" y="2780" width="192.83" height="30" as="geometry" />
        </mxCell>
      </root>
    </mxGraphModel>
  </diagram>
</mxfile>
